<svg
                    height="100%"
                    viewBox="0 0 24 24"
                    fill="none"
                    xmlns="http://www.w3.org/2000/svg"
                    className="h-6 hover:text-marketing-button-primary-hover"
                  >
                    <path
                      d="M2.659 1.5c-.64 0-1.159.518-1.159 1.159V21.34c0 .64.518 1.159 1.159 1.159h10.058v-8.13H9.979V11.2h2.738V8.861c0-2.713 1.657-4.19 4.077-4.19 1.159 0 2.154.087 2.444.126v2.834H17.56c-1.316 0-1.571.625-1.571 1.543v2.024h3.14l-.41 3.17h-2.73V22.5h5.352c.64 0 1.159-.518 1.159-1.159V2.66c0-.64-.519-1.159-1.159-1.159H2.66Z"
                      fill="currentColor"
                    ></path>
                  </svg>