<svg
                    height="100%"
                    viewBox="0 0 24 24"
                    fill="none"
                    xmlns="http://www.w3.org/2000/svg"
                    className="h-6 hover:text-marketing-button-primary-hover"
                  >
                    <path
                      d="M7.593 1.5A6.1 6.1 0 0 0 1.5 7.595v8.812A6.1 6.1 0 0 0 7.593 22.5h8.865a6.1 6.1 0 0 0 6.093-6.093V7.595A6.1 6.1 0 0 0 16.458 1.5H7.593Zm0 1.805h8.865a4.26 4.26 0 0 1 4.29 4.29v8.812a4.26 4.26 0 0 1-4.29 4.288H7.593a4.258 4.258 0 0 1-4.288-4.288V7.595a4.26 4.26 0 0 1 4.288-4.29Zm10.082 1.806a1.262 1.262 0 1 0 0 2.524 1.262 1.262 0 0 0 0-2.524Zm-5.65 1.482A5.42 5.42 0 0 0 6.62 12a5.42 5.42 0 0 0 5.407 5.407c2.975 0 5.408-2.431 5.408-5.407s-2.433-5.407-5.408-5.407Zm0 1.805c2 0 3.604 1.602 3.604 3.602 0 2-1.603 3.602-3.603 3.602S8.424 14 8.424 12c0-2 1.601-3.602 3.602-3.602Z"
                      fill="currentColor"
                    ></path>
                  </svg>