<svg
                    height="100%"
                    viewBox="0 0 24 24"
                    fill="none"
                    xmlns="http://www.w3.org/2000/svg"
                    className="h-6 hover:text-marketing-button-primary-hover"
                  >
                    <path
                      d="M3.043 1.5c-.851 0-1.543.672-1.543 1.503v17.994c0 .831.692 1.503 1.543 1.503h17.785c.852 0 1.543-.672 1.543-1.503V3.003c0-.831-.691-1.503-1.543-1.503H3.043Zm3.228 3.525c1.078 0 1.739.707 1.76 1.637 0 .91-.684 1.637-1.784 1.637H6.23c-1.058 0-1.742-.727-1.742-1.637 0-.93.704-1.637 1.783-1.637Zm9.295 4.35c2.074 0 3.625 1.355 3.625 4.268v5.437H16.04v-5.075c0-1.275-.455-2.145-1.596-2.145-.871 0-1.392.59-1.62 1.157-.083.203-.1.483-.1.766v5.297H9.569s.041-8.593 0-9.483h3.157v1.339c.419-.646 1.17-1.561 2.841-1.561Zm-2.841 1.561-.023.035h.023v-.035Zm-8.05-1.339h3.15v9.483h-3.15V9.597Z"
                      fill="currentColor"
                    ></path>
                  </svg>