<svg width="120" height="26" viewBox="0 0 120 26" fill="none" xmlns="http://www.w3.org/2000/svg">
<path d="M34.6034 13.3643C34.6034 15.5646 35.4186 16.6649 37.0494 16.6649C37.4032 16.6649 37.7494 16.6188 38.0878 16.5264C38.4417 16.4341 38.7263 16.3187 38.9417 16.1802V9.97124C38.7725 9.94047 38.5571 9.91738 38.2955 9.90199C38.034 9.87122 37.7494 9.85583 37.4417 9.85583C36.5032 9.85583 35.7956 10.179 35.3187 10.8253C34.8418 11.4561 34.6034 12.3025 34.6034 13.3643ZM31.0957 13.2719C31.0957 12.3333 31.2342 11.4792 31.5111 10.7099C31.8034 9.92507 32.2187 9.25571 32.7572 8.70175C33.2957 8.13241 33.9571 7.69386 34.7417 7.3861C35.5264 7.07835 36.4187 6.92447 37.4187 6.92447C37.834 6.92447 38.2648 6.94755 38.7109 6.99371C39.1724 7.0245 39.6186 7.07066 40.0494 7.1322C40.4955 7.19376 40.9186 7.2707 41.3186 7.36302C41.7185 7.43996 42.0724 7.52459 42.3801 7.61692V23.6125H38.9417V19.0422C38.5571 19.2116 38.1571 19.3423 37.7417 19.4347C37.3263 19.527 36.8802 19.5732 36.4032 19.5732C34.6803 19.5732 33.3649 19.0116 32.4572 17.8883C31.5495 16.7495 31.0957 15.2108 31.0957 13.2719Z" fill="#F3F1EB"/>
<path d="M52.2156 10.2482C51.908 10.1713 51.5464 10.0943 51.131 10.0174C50.7157 9.92505 50.2695 9.87889 49.7926 9.87889C49.5773 9.87889 49.3157 9.90197 49.008 9.94813C48.7157 9.97891 48.4927 10.0174 48.3388 10.0635V19.3423H44.9004V7.84772C45.5157 7.63229 46.2389 7.43225 47.0696 7.24759C47.9157 7.04756 48.8541 6.94754 49.8849 6.94754C50.0696 6.94754 50.2926 6.96292 50.5542 6.99369C50.8157 7.00908 51.0772 7.03986 51.3388 7.08602C51.6003 7.1168 51.8617 7.16297 52.1233 7.22451C52.3848 7.27067 52.6079 7.33223 52.7925 7.40916L52.2156 10.2482Z" fill="#F3F1EB"/>
<path d="M65.0648 13.2488C65.0648 14.2029 64.9263 15.0799 64.6494 15.8801C64.3724 16.6649 63.9725 17.342 63.4494 17.9113C62.9263 18.4653 62.2956 18.8961 61.5571 19.2038C60.8341 19.5116 60.0187 19.6655 59.111 19.6655C58.2187 19.6655 57.4034 19.5116 56.6649 19.2038C55.9419 18.8961 55.3188 18.4653 54.7957 17.9113C54.2727 17.342 53.865 16.6649 53.5726 15.8801C53.2804 15.0799 53.1343 14.2029 53.1343 13.2488C53.1343 12.2948 53.2804 11.4253 53.5726 10.6405C53.8804 9.85581 54.2958 9.18645 54.8188 8.63249C55.3573 8.07854 55.988 7.64767 56.7111 7.33992C57.4495 7.03217 58.2495 6.8783 59.111 6.8783C59.9879 6.8783 60.7879 7.03217 61.511 7.33992C62.2494 7.64767 62.8802 8.07854 63.4032 8.63249C63.9263 9.18645 64.334 9.85581 64.6263 10.6405C64.9186 11.4253 65.0648 12.2948 65.0648 13.2488ZM61.5571 13.2488C61.5571 12.1871 61.3418 11.3561 60.911 10.756C60.4956 10.1405 59.8956 9.83273 59.111 9.83273C58.3264 9.83273 57.7187 10.1405 57.2879 10.756C56.8572 11.3561 56.6418 12.1871 56.6418 13.2488C56.6418 14.3106 56.8572 15.1568 57.2879 15.7878C57.7187 16.4033 58.3264 16.711 59.111 16.711C59.8956 16.711 60.4956 16.4033 60.911 15.7878C61.3418 15.1568 61.5571 14.3106 61.5571 13.2488Z" fill="#F3F1EB"/>
<path d="M74.1431 12.3717C73.8354 13.5412 73.5046 14.7029 73.1508 15.857C72.8124 17.0111 72.4508 18.1729 72.0662 19.3423H69.3893C69.1124 18.6961 68.8124 17.9266 68.4893 17.0342C68.1663 16.1417 67.8279 15.1723 67.474 14.1259C67.1355 13.0641 66.7817 11.9486 66.4125 10.7791C66.0587 9.59424 65.7125 8.40169 65.374 7.20145H68.997C69.1201 7.75541 69.2509 8.36322 69.3893 9.02489C69.5431 9.67117 69.6971 10.3405 69.8509 11.033C70.0201 11.7255 70.1893 12.4255 70.3585 13.1334C70.5431 13.8259 70.7278 14.4952 70.9124 15.1415C71.1123 14.4645 71.3046 13.772 71.4893 13.0641C71.6893 12.3564 71.8739 11.6639 72.0431 10.9868C72.2277 10.2944 72.397 9.63271 72.5508 9.00181C72.72 8.35552 72.8662 7.75541 72.9892 7.20145H75.4815C75.6046 7.75541 75.7431 8.35552 75.8969 9.00181C76.0507 9.63271 76.2122 10.2944 76.3815 10.9868C76.5507 11.6639 76.7276 12.3564 76.9123 13.0641C77.0969 13.772 77.2892 14.4645 77.4891 15.1415C77.6738 14.4952 77.8584 13.8259 78.043 13.1334C78.2276 12.4255 78.3968 11.7255 78.5506 11.033C78.7199 10.3405 78.8737 9.67117 79.0122 9.02489C79.1661 8.36322 79.3045 7.75541 79.4276 7.20145H83.0044C82.6659 8.40169 82.3122 9.59424 81.9429 10.7791C81.589 11.9486 81.2352 13.0641 80.8814 14.1259C80.543 15.1723 80.2045 16.1417 79.8661 17.0342C79.543 17.9266 79.243 18.6961 78.9661 19.3423H76.2892C75.9046 18.1729 75.5277 17.0111 75.1584 15.857C74.7892 14.7029 74.4507 13.5412 74.1431 12.3717Z" fill="#F3F1EB"/>
<path d="M86.8153 13.1795C86.8153 14.2413 87.0537 15.0954 87.5306 15.7416C88.0075 16.3879 88.7151 16.711 89.6536 16.711C89.9614 16.711 90.2459 16.7034 90.5074 16.6879C90.769 16.6571 90.9844 16.6264 91.1536 16.5956V10.3405C90.9383 10.202 90.6536 10.0866 90.2998 9.99431C89.9614 9.90198 89.6151 9.85582 89.2613 9.85582C87.6305 9.85582 86.8153 10.9637 86.8153 13.1795ZM94.592 18.95C94.2843 19.0422 93.9304 19.1346 93.5305 19.2269C93.1305 19.3038 92.7074 19.3731 92.2613 19.4347C91.8305 19.4962 91.3843 19.5424 90.9228 19.5731C90.4767 19.6193 90.0459 19.6424 89.6306 19.6424C88.6306 19.6424 87.7382 19.4962 86.9536 19.2039C86.169 18.9115 85.5076 18.496 84.9691 17.9574C84.4306 17.4034 84.0153 16.7418 83.723 15.9724C83.4461 15.1876 83.3076 14.3106 83.3076 13.3412C83.3076 12.3563 83.4306 11.4715 83.6768 10.6868C83.923 9.88659 84.2768 9.20954 84.7383 8.65558C85.1999 8.10163 85.7614 7.67847 86.4229 7.3861C87.0998 7.09373 87.8691 6.94755 88.7306 6.94755C89.2074 6.94755 89.6306 6.99371 89.9998 7.08603C90.3844 7.17836 90.769 7.30916 91.1536 7.47842V1.98501L94.592 1.43106V18.95Z" fill="#F3F1EB"/>
<path d="M100.597 16.8726C101.228 16.8726 101.674 16.811 101.935 16.6879C102.197 16.5649 102.328 16.3264 102.328 15.9724C102.328 15.6955 102.158 15.4569 101.82 15.2569C101.482 15.0414 100.966 14.803 100.274 14.5414C99.7354 14.3413 99.2432 14.1336 98.797 13.9181C98.3662 13.7027 97.9969 13.4489 97.6893 13.1565C97.3816 12.8488 97.1432 12.4871 96.9739 12.0717C96.8047 11.6562 96.7201 11.156 96.7201 10.5714C96.7201 9.43265 97.1432 8.53247 97.9893 7.8708C98.8355 7.20913 99.997 6.8783 101.474 6.8783C102.212 6.8783 102.92 6.94753 103.597 7.08602C104.274 7.20913 104.812 7.34762 105.212 7.50149L104.612 10.179C104.212 10.0405 103.774 9.91736 103.297 9.80964C102.835 9.70194 102.312 9.64807 101.728 9.64807C100.651 9.64807 100.112 9.94813 100.112 10.5483C100.112 10.6868 100.135 10.8098 100.182 10.9176C100.228 11.0253 100.32 11.133 100.458 11.2408C100.597 11.333 100.782 11.4408 101.012 11.5638C101.258 11.6716 101.566 11.7946 101.935 11.9331C102.689 12.2101 103.312 12.4871 103.805 12.7641C104.297 13.0256 104.682 13.318 104.958 13.6412C105.25 13.9489 105.451 14.2951 105.558 14.6798C105.681 15.0646 105.743 15.5108 105.743 16.0186C105.743 17.2188 105.289 18.1267 104.381 18.7422C103.489 19.3578 102.22 19.6655 100.574 19.6655C99.4969 19.6655 98.5969 19.5731 97.8739 19.3884C97.1662 19.2038 96.6739 19.0499 96.397 18.9268L96.9739 16.134C97.5586 16.3648 98.1585 16.5494 98.7739 16.6879C99.3893 16.811 99.997 16.8726 100.597 16.8726Z" fill="#F3F1EB"/>
<path d="M118.39 7.20145C117.698 9.54038 116.975 11.7331 116.22 13.7797C115.467 15.8262 114.644 17.8112 113.752 19.7347C113.428 20.4271 113.106 21.0119 112.782 21.4889C112.46 21.9813 112.106 22.3814 111.721 22.6892C111.336 23.0123 110.898 23.2432 110.405 23.3816C109.928 23.5354 109.367 23.6125 108.721 23.6125C108.182 23.6125 107.683 23.5586 107.221 23.4508C106.775 23.3586 106.405 23.2508 106.113 23.1278L106.713 20.381C107.067 20.5041 107.382 20.5888 107.66 20.6349C107.936 20.6811 108.228 20.7042 108.536 20.7042C109.152 20.7042 109.62 20.5349 109.944 20.1963C110.282 19.8733 110.567 19.4192 110.797 18.8346C110.013 17.2958 109.229 15.5724 108.444 13.6642C107.66 11.7408 106.921 9.58654 106.229 7.20145H109.875C110.028 7.80157 110.206 8.45555 110.405 9.16338C110.621 9.85583 110.844 10.5637 111.075 11.2869C111.306 11.9947 111.536 12.6871 111.767 13.3642C112.013 14.0413 112.244 14.6568 112.46 15.2108C112.659 14.6568 112.867 14.0413 113.083 13.3642C113.298 12.6871 113.505 11.9947 113.706 11.2869C113.921 10.5637 114.121 9.85583 114.306 9.16338C114.505 8.45555 114.682 7.80157 114.836 7.20145H118.39Z" fill="#F3F1EB"/>
<path fill-rule="evenodd" clip-rule="evenodd" d="M22.5866 12.5064C22.5866 14.9161 21.8133 17.146 20.5002 18.9639L25.1871 22.7375C25.5495 23.0294 25.3422 23.6125 24.876 23.6125H12.5815C12.5815 23.6125 12.4027 23.6048 11.21 23.579C5.17769 23.448 0.328125 18.5408 0.328125 12.5064C0.328125 6.38964 5.31085 1.43106 11.4574 1.43106C17.6039 1.43106 22.5866 6.38964 22.5866 12.5064ZM11.5191 17.5517C14.3533 17.5517 16.651 15.2654 16.651 12.4448C16.651 9.62435 14.3533 7.33789 11.5191 7.33789C8.68496 7.33789 6.38736 9.62435 6.38736 12.4448C6.38736 15.2654 8.68496 17.5517 11.5191 17.5517Z" fill="#F3F1EB"/>
</svg>
